<?xml version="1.0" encoding="utf-8"?>
<!-- Generator: Adobe Illustrator 21.1.0, SVG Export Plug-In . SVG Version: 6.00 Build 0)  -->
<svg version="1.1" id="Layer_1" xmlns="http://www.w3.org/2000/svg" xmlns:xlink="http://www.w3.org/1999/xlink" x="0px" y="0px"
	 viewBox="0 0 600 600" style="enable-background:new 0 0 600 600;" xml:space="preserve">
<style type="text/css">
	.st0{fill:#7BC5C1;stroke:#7BC5C1;stroke-miterlimit:10;}
	.st1{fill:#C5E1DD;stroke:#C5E1DD;stroke-miterlimit:10;}
	.st2{fill:#C5E1DD;}
</style>
<g>
	<g>
		<g>
			<path class="st0" d="M296.5,228.1c31.3,10.2,60,18.5,88.2,27.4c13.4,4.5,26.8,9.5,39,16c30,16.6,39.7,45.3,40.8,77.3
				c0.6,20.5-1.9,41.5-5.2,62c-3.9,24.9-18.5,44.1-39.7,56.9c-21.1,12.1-42.8,23.7-64.5,33.2c-70.3,31.3-140.5,62-211.5,92.6
				c-3.2,1.3-6.4,2.6-12.1,4.5c2.6-39.7-5.2-77.9,7.1-115.7c9.5-28.7,30-47.9,56.3-60.7c28.7-14.7,58.7-26.8,88.2-40.3
				c4.5-1.9,8.2-4.5,12.8-9.5c-22.4-7.1-44.7-14-67.1-21.8c-17.3-5.8-35.2-12.1-51.8-19.8c-23.1-11.5-37.1-31.9-42.1-56.9
				c-7.1-32.6-5.8-65.2,6.4-96.5c10.2-26.1,30.7-42.1,54.4-54.4c33.9-17.3,69-31.9,103.6-47.3c51.1-23.1,102.9-45.3,154.1-67.8
				c3.9-1.3,7.1-2.6,11.5-4.5c0,29.4,1.3,57.5,0,86.3c-1.9,39-22.4,68.4-56.3,86.3c-31.3,16.6-63.9,30-95.8,45.3
				C308.6,222.5,304.7,224.4,296.5,228.1z"/>
		</g>
		<path class="st1" d="M428.1,462.1c2.6-5.2,6.4-14,4.5-24.9c-0.6-5.2-2.6-8.9-4.5-12.1c0,0-1.9-2.6-4.5-5.2
			c-25.5-24.3-83.1-35.8-83.1-35.8c-14.7-3.2-37.1-8.9-81.8-21.1c-5.8-1.9-46.6-12.8-87-35.2c-7.1-3.9-13.4-7.7-19.2-14
			c-6.4-6.4-17.9-25.5-22.4-57.5c-2.6-19.2-1.3-33.9-0.6-39c1.3-8.9,2.6-21.8,8.2-36.5c7.1-17.3,18.5-30,27.4-38.4
			c-3.9,11.5-3.2,20.5-1.9,24.9c5.2,21.1,45.3,35.8,59.4,39.7c14,3.9,164.9,46.6,179.6,50.5c27.4,7.7,36.5,15.3,45.3,24.9
			c2.6,3.2,10.8,12.8,16.6,30.7c10.8,35.2,2.6,74.1-0.6,90c-3.9,17.3-7.7,25.5-12.1,33.9C443.4,449.3,434.6,457.6,428.1,462.1z"/>
	</g>
	<path class="st1" d="M180.8,578.4c-17.3,7.7-33.9,15.3-51.1,22.4c0-49.2,0-99.1-0.6-148.3c15.3-6.4,30-13.4,45.3-19.8
		C176.9,481.3,178.9,529.8,180.8,578.4z"/>
	<path class="st1" d="M470.9,138.7c-14,8.2-28.7,16.6-42.8,24.9c-1.3-47.9-2.6-95.8-4.5-143.8C438.3,13.4,453,6.4,467.7,0
		C468.9,45.5,470.2,92.1,470.9,138.7z"/>
	<g>
		<path class="st1" d="M194.8,550.9c0.6,21.8,0.6,21.8,0.6,21.8l0,0"/>
		<path class="st2" d="M195.5,573.2c-0.6,0-1.3,0.6-1.9,0.6c0-0.6,0-1.3,0-1.3c1.3,0,2.6,0,3.9,0
			C196.1,572.6,195.5,573.2,195.5,573.2z"/>
	</g>
	<path class="st2" d="M196.8,573.2"/>
	<path class="st2" d="M194.2,574.5"/>
	<g>
		<path class="st1" d="M201.3,547.7c0.6,21.8,0.6,21.8,0.6,21.8l0,0"/>
		<path class="st2" d="M201.9,570.1c-0.6,0-1.3,0.6-1.9,0.6c0-0.6,0-1.3,0-1.3c1.3,0,2.6,0,3.9,0
			C203.2,569.5,202.6,570.1,201.9,570.1z"/>
	</g>
	<g>
		<path class="st1" d="M208.9,544.5c0.6,21.8,0.6,21.8,0.6,21.8l0,0"/>
		<path class="st2" d="M209.5,566.9c-0.6,0-1.3,0.6-1.9,0.6c0-0.6,0-1.3,0-1.3c1.3,0,2.6,0,3.9,0
			C210.2,566.3,210.2,566.9,209.5,566.9z"/>
	</g>
	<g>
		<path class="st1" d="M302.3,503.7c0.6,21.8,0.6,21.8,0.6,21.8l0,0"/>
		<path class="st2" d="M302.9,526c-0.6,0-1.3,0.6-1.9,0.6c0-0.6,0-1.3,0-1.3c1.3,0,2.6,0,3.9,0C304.2,525.3,303.5,526,302.9,526z"/>
	</g>
	<g>
		<path class="st1" d="M309.2,500.5c0.6,21.8,0.6,21.8,0.6,21.8l0,0"/>
		<path class="st2" d="M309.9,522.7c-0.6,0-1.3,0.6-1.9,0.6c0-0.6,0-1.3,0-1.3c1.3,0,2.6,0,3.9,0
			C311.1,522.1,310.5,522.7,309.9,522.7z"/>
	</g>
	<g>
		<path class="st1" d="M316.3,497.9c0.6,21.8,0.6,21.8,0.6,21.8l0,0"/>
		<path class="st2" d="M316.9,520.3c-0.6,0-1.3,0.6-1.9,0.6c0-0.6,0-1.3,0-1.3c1.3,0,2.6,0,3.9,0
			C318.2,519.6,317.6,519.6,316.9,520.3z"/>
	</g>
	<g>
		<path class="st1" d="M323.3,494.7c0.6,21.8,0.6,21.8,0.6,21.8l0,0"/>
		<path class="st2" d="M323.9,517.1c-0.6,0-1.3,0.6-1.9,0.6c0-0.6,0-1.3,0-1.3c1.3,0,2.6,0,3.9,0
			C325.2,516.4,324.5,517.1,323.9,517.1z"/>
	</g>
	<g>
		<path class="st1" d="M330.3,491.4c0.6,21.8,0.6,21.8,0.6,21.8l0,0"/>
		<path class="st2" d="M331,513.8c-0.6,0-1.3,0.6-1.9,0.6c0-0.6,0-1.3,0-1.3c1.3,0,2.6,0,3.9,0C332.3,513.2,331.6,513.2,331,513.8z"
			/>
	</g>
	<g>
		<path class="st1" d="M337.3,488.3c0.6,21.8,0.6,21.8,0.6,21.8l0,0"/>
		<path class="st2" d="M338.6,510.6c-0.6,0-1.3,0.6-1.9,0.6c0-0.6,0-1.3,0-1.3c1.3,0,2.6,0,3.9,0C339.2,510,339.2,510,338.6,510.6z"
			/>
	</g>
	<g>
		<path class="st1" d="M216,541.3c0.6,21.8,0.6,21.8,0.6,21.8l0,0"/>
		<path class="st2" d="M217.2,563.7c-0.6,0-1.3,0.6-1.9,0.6c0-0.6,0-1.3,0-1.3c1.3,0,2.6,0,3.9,0
			C217.9,563.1,217.2,563.1,217.2,563.7z"/>
	</g>
	<g>
		<path class="st1" d="M223.6,538.1c0.6,21.8,0.6,21.8,0.6,21.8l0,0"/>
		<path class="st2" d="M224.2,560.5c-0.6,0-1.3,0.6-1.9,0.6c0-0.6,0-1.3,0-1.3c1.3,0,2.6,0,3.9,0
			C225.5,559.8,224.8,559.8,224.2,560.5z"/>
	</g>
	<g>
		<path class="st1" d="M230.6,535c0.6,21.8,0.6,21.8,0.6,21.8l0,0"/>
		<path class="st2" d="M231.3,557.3c-0.6,0-1.3,0.6-1.9,0.6c0-0.6,0-1.3,0-1.3c1.3,0,2.6,0,3.9,0
			C232.6,557.3,231.9,557.3,231.3,557.3z"/>
	</g>
	<g>
		<path class="st1" d="M237.1,531.8c0.6,21.8,0.6,21.8,0.6,21.8l0,0"/>
		<path class="st2" d="M238.4,554c-0.6,0-1.3,0.6-1.9,0.6c0-0.6,0-1.3,0-1.3c1.3,0,2.6,0,3.9,0C239.5,553.5,239,554,238.4,554z"/>
	</g>
	<g>
		<path class="st1" d="M244.7,528.5c0.6,21.8,0.6,21.8,0.6,21.8l0,0"/>
		<path class="st2" d="M245.3,550.9c-0.6,0-1.3,0.6-1.9,0.6c0-0.6,0-1.3,0-1.3c1.3,0,2.6,0,3.9,0C246.6,550.9,246,550.9,245.3,550.9
			z"/>
	</g>
	<g>
		<path class="st1" d="M251.8,526c0.6,21.8,0.6,21.8,0.6,21.8l0,0"/>
		<path class="st2" d="M252.4,548.4c-0.6,0-1.3,0.6-1.9,0.6c0-0.6,0-1.3,0-1.3c1.3,0,2.6,0,3.9,0
			C253.7,547.7,253.1,547.7,252.4,548.4z"/>
	</g>
	<g>
		<path class="st1" d="M258.7,522.7c0.6,21.8,0.6,21.8,0.6,21.8l0,0"/>
		<path class="st2" d="M259.4,545.2c-0.6,0-1.3,0.6-1.9,0.6c0-0.6,0-1.3,0-1.3c1.3,0,2.6,0,3.9,0C260.7,544.5,260,544.5,259.4,545.2
			z"/>
	</g>
	<g>
		<path class="st1" d="M265.8,519.6c0.6,21.8,0.6,21.8,0.6,21.8l0,0"/>
		<path class="st2" d="M267.1,541.9c-0.6,0-1.3,0.6-1.9,0.6c0-0.6,0-1.3,0-1.3c1.3,0,2.6,0,3.9,0
			C267.7,541.3,267.7,541.3,267.1,541.9z"/>
	</g>
	<g>
		<path class="st1" d="M273.4,516.4c0.6,21.8,0.6,21.8,0.6,21.8l0,0"/>
		<path class="st2" d="M274.1,538.7c-0.6,0-1.3,0.6-1.9,0.6c0-0.6,0-1.3,0-1.3c1.3,0,2.6,0,3.9,0
			C275.3,538.1,274.7,538.1,274.1,538.7z"/>
	</g>
	<g>
		<path class="st1" d="M279.8,513.2c0.6,21.8,0.6,21.8,0.6,21.8l0,0"/>
		<path class="st2" d="M281.1,535.6c-0.6,0-1.3,0.6-1.9,0.6c0-0.6,0-1.3,0-1.3c1.3,0,2.6,0,3.9,0C281.8,535,281.8,535.6,281.1,535.6
			z"/>
	</g>
	<g>
		<path class="st1" d="M287.6,510c0.6,21.8,0.6,21.8,0.6,21.8l0,0"/>
		<path class="st2" d="M288.2,532.4c-0.6,0-1.3,0.6-1.9,0.6c0-0.6,0-1.3,0-1.3c1.3,0,2.6,0,3.9,0
			C289.4,531.8,288.7,532.4,288.2,532.4z"/>
	</g>
	<g>
		<path class="st1" d="M294.5,507.4c0.6,21.8,0.6,21.8,0.6,21.8l0,0"/>
		<path class="st2" d="M295.2,529.8c-0.6,0-1.3,0.6-1.9,0.6c0-0.6,0-1.3,0-1.3c1.3,0,2.6,0,3.9,0
			C296.5,529.2,295.8,529.2,295.2,529.8z"/>
	</g>
	<g>
		<path class="st1" d="M327.1,193.7c0.6,21.8,0.6,21.8,0.6,21.8l0,0"/>
		<path class="st2" d="M327.8,216c-0.6,0-1.3,0.6-1.9,0.6c0-0.6,0-1.3,0-1.3c1.3,0,2.6,0,3.9,0C329.1,215.4,328.4,215.4,327.8,216z"
			/>
	</g>
	<g>
		<path class="st1" d="M334.9,190.5c0.6,21.8,0.6,21.8,0.6,21.8l0,0"/>
		<path class="st2" d="M335.5,212.8c-0.6,0-1.3,0.6-1.9,0.6c0-0.6,0-1.3,0-1.3c1.3,0,2.6,0,3.9,0
			C336.8,212.2,336.1,212.2,335.5,212.8z"/>
	</g>
	<g>
		<path class="st1" d="M341.8,187.3c0.6,21.8,0.6,21.8,0.6,21.8l0,0"/>
		<path class="st2" d="M342.5,209.7c-0.6,0-1.3,0.6-1.9,0.6c0-0.6,0-1.3,0-1.3c1.3,0,2.6,0,3.9,0
			C343.7,209.1,343.1,209.7,342.5,209.7z"/>
	</g>
	<g>
		<path class="st1" d="M187.9,554c0.6,21.8,0.6,21.8,0.6,21.8l0,0"/>
		<path class="st2" d="M188.5,576.5c-0.6,0-1.3,0.6-1.9,0.6c0-0.6,0-1.3,0-1.3c1.3,0,2.6,0,3.9,0
			C189.8,575.8,189.2,576.5,188.5,576.5z"/>
	</g>
	<g>
		<path class="st1" d="M420.4,147c0.6,21.8,0.6,21.8,0.6,21.8l0,0"/>
		<path class="st2" d="M421,169.4c-0.6,0-1.3,0.6-1.9,0.6c0-0.6,0-1.3,0-1.3c1.3,0,2.6,0,3.9,0C422.3,168.7,421.7,168.7,421,169.4z"
			/>
	</g>
	<g>
		<path class="st1" d="M305.4,202.6c0.6,21.8,0.6,21.8,0.6,21.8l0,0"/>
		<path class="st2" d="M306,225c-0.6,0-1.3,0.6-1.9,0.6c0-0.6,0-1.3,0-1.3c1.3,0,2.6,0,3.9,0C307.3,224.4,306.6,225,306,225z"/>
	</g>
	<g>
		<path class="st1" d="M312.4,199.4c0.6,21.8,0.6,21.8,0.6,21.8l0,0"/>
		<path class="st2" d="M313.1,221.8c-0.6,0-1.3,0.6-1.9,0.6c0-0.6,0-1.3,0-1.3c1.3,0,2.6,0,3.9,0
			C314.4,221.8,313.7,221.8,313.1,221.8z"/>
	</g>
	<g>
		<path class="st1" d="M320.2,196.2c0.6,21.8,0.6,21.8,0.6,21.8l0,0"/>
		<path class="st2" d="M320.8,218.6c-0.6,0-1.3,0.6-1.9,0.6c0-0.6,0-1.3,0-1.3c1.3,0,2.6,0,3.9,0
			C321.3,218.6,321.3,218.6,320.8,218.6z"/>
	</g>
	<g>
		<path class="st1" d="M410.2,452.5c0.6,21.8,0.6,21.8,0.6,21.8l0,0"/>
		<path class="st2" d="M410.9,474.8c-0.6,0-1.3,0.6-1.9,0.6c0-0.6,0-1.3,0-1.3c1.3,0,2.6,0,3.9,0
			C412.1,474.2,411.5,474.8,410.9,474.8z"/>
	</g>
	<g>
		<path class="st1" d="M417.9,448c0.6,21.8,0.6,21.8,0.6,21.8l0,0"/>
		<path class="st2" d="M418.6,470.4c-0.6,0-1.3,0.6-1.9,0.6c0-0.6,0-1.3,0-1.3c1.3,0,2.6,0,3.9,0
			C419.7,470.4,419.1,470.4,418.6,470.4z"/>
	</g>
	<g>
		<path class="st1" d="M345.7,484.5c0.6,21.8,0.6,21.8,0.6,21.8l0,0"/>
		<path class="st2" d="M346.3,506.8c-0.6,0-1.3,0.6-1.9,0.6c0-0.6,0-1.3,0-1.3c1.3,0,2.6,0,3.9,0C347.6,506.1,347,506.1,346.3,506.8
			z"/>
	</g>
	<g>
		<path class="st1" d="M352.8,481.3c0.6,21.8,0.6,21.8,0.6,21.8l0,0"/>
		<path class="st2" d="M353.9,503.7c-0.6,0-1.3,0.6-1.9,0.6c0-0.6,0-1.3,0-1.3c1.3,0,2.6,0,3.9,0C355.2,503,354.6,503,353.9,503.7z"
			/>
	</g>
	<g>
		<path class="st1" d="M360.4,478c0.6,21.8,0.6,21.8,0.6,21.8l0,0"/>
		<path class="st2" d="M361,500.5c-0.6,0-1.3,0.6-1.9,0.6c0-0.6,0-1.3,0-1.3c1.3,0,2.6,0,3.9,0C362.3,500.5,361.6,500.5,361,500.5z"
			/>
	</g>
	<g>
		<path class="st1" d="M367.4,474.8c0.6,21.8,0.6,21.8,0.6,21.8l0,0"/>
		<path class="st2" d="M368.1,497.2c-0.6,0-1.3,0.6-1.9,0.6c0-0.6,0-1.3,0-1.3c1.3,0,2.6,0,3.9,0
			C369.4,496.6,368.7,497.2,368.1,497.2z"/>
	</g>
	<g>
		<path class="st1" d="M374.4,471.7c0.6,21.8,0.6,21.8,0.6,21.8l0,0"/>
		<path class="st2" d="M375,494c-0.6,0-1.3,0.6-1.9,0.6c0-0.6,0-1.3,0-1.3c1.3,0,2.6,0,3.9,0C376.3,493.4,375.7,494,375,494z"/>
	</g>
	<g>
		<path class="st1" d="M381.5,467.9c0.6,21.8,0.6,21.8,0.6,21.8l0,0"/>
		<path class="st2" d="M382.8,490.1c-0.6,0-1.3,0.6-1.9,0.6c0-0.6,0-1.3,0-1.3c1.3,0,2.6,0,3.9,0
			C383.4,489.5,382.8,490.1,382.8,490.1z"/>
	</g>
	<g>
		<path class="st1" d="M388.4,464.6c0.6,21.8,0.6,21.8,0.6,21.8l0,0"/>
		<path class="st2" d="M389.1,487.1c-0.6,0-1.3,0.6-1.9,0.6c0-0.6,0-1.3,0-1.3c1.3,0,2.6,0,3.9,0
			C390.4,486.4,389.7,487.1,389.1,487.1z"/>
	</g>
	<g>
		<path class="st1" d="M395.5,460.8c0.6,21.8,0.6,21.8,0.6,21.8l0,0"/>
		<path class="st2" d="M396.8,483.2c-0.6,0-1.3,0.6-1.9,0.6c0-0.6,0-1.3,0-1.3c1.3,0,2.6,0,3.9,0
			C398.1,482.5,397.5,482.5,396.8,483.2z"/>
	</g>
	<g>
		<path class="st1" d="M402.6,456.9c0.6,21.8,0.6,21.8,0.6,21.8l0,0"/>
		<path class="st2" d="M403.8,479.3c-0.6,0-1.3,0.6-1.9,0.6c0-0.6,0-1.3,0-1.3c1.3,0,2.6,0,3.9,0
			C404.4,478.7,404.4,479.3,403.8,479.3z"/>
	</g>
	<g>
		<path class="st1" d="M350.2,183.4c0.6,21.8,0.6,21.8,0.6,21.8l0,0"/>
		<path class="st2" d="M350.8,205.8c-0.6,0-1.3,0.6-1.9,0.6c0-0.6,0-1.3,0-1.3c1.3,0,2.6,0,3.9,0
			C352.1,205.2,351.5,205.2,350.8,205.8z"/>
	</g>
	<g>
		<path class="st1" d="M357.1,180.2c0.6,21.8,0.6,21.8,0.6,21.8l0,0"/>
		<path class="st2" d="M357.8,202.6c-0.6,0-1.3,0.6-1.9,0.6c0-0.6,0-1.3,0-1.3c1.3,0,2.6,0,3.9,0C359.1,202,358.4,202,357.8,202.6z"
			/>
	</g>
	<g>
		<path class="st1" d="M364.9,177.1c0.6,21.8,0.6,21.8,0.6,21.8l0,0"/>
		<path class="st2" d="M364.9,199.4c-0.6,0-1.3,0.6-1.9,0.6c0-0.6,0-1.3,0-1.3c1.3,0,2.6,0,3.9,0
			C366.2,198.8,365.5,198.8,364.9,199.4z"/>
	</g>
	<g>
		<path class="st1" d="M371.2,173.3c0.6,21.8,0.6,21.8,0.6,21.8l0,0"/>
		<path class="st2" d="M371.8,195.5c-0.6,0-1.3,0.6-1.9,0.6c0-0.6,0-1.3,0-1.3c1.3,0,2.6,0,3.9,0
			C373.1,195.5,372.5,195.5,371.8,195.5z"/>
	</g>
	<g>
		<path class="st1" d="M378.3,170c0.6,21.8,0.6,21.8,0.6,21.8l0,0"/>
		<path class="st2" d="M378.9,192.5c-0.6,0-1.3,0.6-1.9,0.6c0-0.6,0-1.3,0-1.3c1.3,0,2.6,0,3.9,0
			C380.2,191.8,379.6,192.5,378.9,192.5z"/>
	</g>
	<g>
		<path class="st1" d="M386,166.2c0.6,21.8,0.6,21.8,0.6,21.8l0,0"/>
		<path class="st2" d="M386,188.6c-0.6,0-1.3,0.6-1.9,0.6c0-0.6,0-1.3,0-1.3c1.3,0,2.6,0,3.9,0C387.2,188.6,386.5,188.6,386,188.6z"
			/>
	</g>
	<g>
		<path class="st1" d="M392.9,163c0.6,21.8,0.6,21.8,0.6,21.8l0,0"/>
		<path class="st2" d="M393.6,185.4c-0.6,0-1.3,0.6-1.9,0.6c0-0.6,0-1.3,0-1.3c1.3,0,2.6,0,3.9,0
			C394.9,184.7,394.2,185.4,393.6,185.4z"/>
	</g>
	<g>
		<path class="st1" d="M400,159.2c0.6,21.8,0.6,21.8,0.6,21.8l0,0"/>
		<path class="st2" d="M400.7,181.5c-0.6,0-1.3,0.6-1.9,0.6c0-0.6,0-1.3,0-1.3c1.3,0,2.6,0,3.9,0C402,181.5,401.3,181.5,400.7,181.5
			z"/>
	</g>
	<g>
		<path class="st1" d="M407,156c0.6,21.8,0.6,21.8,0.6,21.8l0,0"/>
		<path class="st2" d="M407.6,178.3c-0.6,0-1.3,0.6-1.9,0.6c0-0.6,0-1.3,0-1.3c1.3,0,2.6,0,3.9,0
			C408.3,177.8,407.6,177.8,407.6,178.3z"/>
	</g>
	<g>
		<path class="st1" d="M414.1,152.1c0.6,21.8,0.6,21.8,0.6,21.8l0,0"/>
		<path class="st2" d="M414.7,174.5c-0.6,0-1.3,0.6-1.9,0.6c0-0.6,0-1.3,0-1.3c1.3,0,2.6,0,3.9,0
			C415.4,173.9,414.7,173.9,414.7,174.5z"/>
	</g>
</g>
</svg>
