<svg id="Layer_1" data-name="Layer 1" xmlns="http://www.w3.org/2000/svg" viewBox="0 0 836.72 512.26"><defs><style>.cls-1{fill:#7bc6c2;stroke:#7bc6c2;}.cls-1,.cls-2,.cls-4,.cls-5{stroke-miterlimit:10;}.cls-2,.cls-3{fill:#c6e2dd;}.cls-2{stroke:#c6e2dd;}.cls-4{font-size:145.45px;}.cls-4,.cls-5{fill:#fff;stroke:#fff;font-family:Roboto-Regular, Roboto;}.cls-5{font-size:72.72px;}</style></defs><title>SYZE logo</title><path class="cls-1" d="M144.62,211.51c26.86,8.43,50.87,15.64,74.63,23.57,11.33,3.78,22.78,7.92,33.17,13.71,25.39,14.15,33.75,38.62,34.62,65.51.57,17.5-1.48,35.27-4.23,52.63-3.36,21.17-15.81,37.56-33.89,48.39A518.39,518.39,0,0,1,194,443.67C134.38,470.3,74.41,496.22,14.55,522.38c-2.67,1.17-5.48,2-10.4,3.79,2-33.66-4.42-66.31,6.23-98,8.12-24.19,25.77-40.58,47.69-51.76,24.39-12.43,49.74-23,74.65-34.38a26.73,26.73,0,0,0,10.83-8.25c-19-6.12-38.1-11.92-56.95-18.46-14.79-5.13-29.77-10.13-43.75-17-19.72-9.73-31.26-27.07-35.71-48.14-5.84-27.64-4.82-55.23,5.49-82,8.53-22.16,26.08-36,46-46,28.79-14.52,58.54-27.14,88-40.24,43.58-19.35,87.29-38.42,131-57.57,3-1.31,6.13-2.28,9.81-3.63,0,25,1.09,49.11-.27,73-1.87,33-19,57.86-47.63,73.22-26.4,14.18-54.23,25.7-81.43,38.38C154.75,206.85,151.37,208.39,144.62,211.51Z" transform="translate(-1.28 -16.45)"/><path class="cls-2" d="M256.53,410.18c2.27-4.29,5.42-12.05,3.81-21a25.51,25.51,0,0,0-3.85-10.32,27.78,27.78,0,0,0-3.64-4.33c-21.53-20.39-70.71-30.16-70.71-30.16-12.71-2.52-31.68-7.7-69.62-18-5.13-1.4-39.46-11-74-29.69-6.16-3.34-11.12-6.55-16.28-11.89S7,263,3.17,235.77a138.17,138.17,0,0,1-.7-33.29c.82-7.74,1.95-18.42,7.19-30.87A92.48,92.48,0,0,1,33.1,139c-3.5,9.85-2.49,17.26-1.54,21.18C36,178.28,70,190.55,82.16,194s140,39.54,152.6,43.07c23.41,6.58,31.07,13,38.29,21,2.35,2.6,9.19,10.89,13.84,25.91,9.3,30,2.18,62.69-.81,76.38-3.14,14.39-6.39,22-10.37,28.51A78,78,0,0,1,256.53,410.18Z" transform="translate(-1.28 -16.45)"/><path class="cls-2" d="M46.4,508.74,3,527.94q-.17-63-.34-126L41,385.13Z" transform="translate(-1.28 -16.45)"/><path class="cls-2" d="M292.71,135.33l-36.38,21-3.55-122,37.32-17Z" transform="translate(-1.28 -16.45)"/><path class="cls-2" d="M58,485.65l.47,18.45h0" transform="translate(-1.28 -16.45)"/><path class="cls-3" d="M58.5,504.67l-1.54.69,0-1.22,3-.08Z" transform="translate(-1.28 -16.45)"/><path class="cls-3" d="M60.1,504.54" transform="translate(-1.28 -16.45)"/><path class="cls-3" d="M57.66,505.73" transform="translate(-1.28 -16.45)"/><path class="cls-2" d="M63.87,482.79l.47,18.45h0" transform="translate(-1.28 -16.45)"/><path class="cls-3" d="M64.38,501.81l-1.54.69,0-1.22,3-.08Z" transform="translate(-1.28 -16.45)"/><path class="cls-2" d="M70,480.19l.47,18.45h0" transform="translate(-1.28 -16.45)"/><path class="cls-3" d="M70.49,499.21l-1.54.69,0-1.22,3-.08Z" transform="translate(-1.28 -16.45)"/><path class="cls-2" d="M149.17,445.55l.71,18.44h0" transform="translate(-1.28 -16.45)"/><path class="cls-3" d="M149.93,464.56l-1.53.71,0-1.22,3-.12Z" transform="translate(-1.28 -16.45)"/><path class="cls-2" d="M155.38,442.74l.71,18.44h0" transform="translate(-1.28 -16.45)"/><path class="cls-3" d="M156.14,461.75l-1.53.71,0-1.22,3-.12Z" transform="translate(-1.28 -16.45)"/><path class="cls-2" d="M161.3,440.27l.71,18.44h0" transform="translate(-1.28 -16.45)"/><path class="cls-3" d="M162.06,459.28l-1.53.71,0-1.22,3-.12Z" transform="translate(-1.28 -16.45)"/><path class="cls-2" d="M167.16,437.77l.71,18.44h0" transform="translate(-1.28 -16.45)"/><path class="cls-3" d="M167.92,456.78l-1.53.71,0-1.22,3-.12Z" transform="translate(-1.28 -16.45)"/><path class="cls-2" d="M173.29,435l.71,18.44h0" transform="translate(-1.28 -16.45)"/><path class="cls-3" d="M174.05,454l-1.53.71,0-1.22,3-.12Z" transform="translate(-1.28 -16.45)"/><path class="cls-2" d="M179.36,432.28l.71,18.44h0" transform="translate(-1.28 -16.45)"/><path class="cls-3" d="M180.12,451.28l-1.53.71,0-1.22,3-.12Z" transform="translate(-1.28 -16.45)"/><path class="cls-2" d="M76.2,477.33l.71,18.44h0" transform="translate(-1.28 -16.45)"/><path class="cls-3" d="M77,496.34l-1.53.71,0-1.22,3-.12Z" transform="translate(-1.28 -16.45)"/><path class="cls-2" d="M82.42,474.6,83.13,493h0" transform="translate(-1.28 -16.45)"/><path class="cls-3" d="M83.18,493.61l-1.53.71,0-1.22,3-.12Z" transform="translate(-1.28 -16.45)"/><path class="cls-2" d="M88.4,472.2l.71,18.44h0" transform="translate(-1.28 -16.45)"/><path class="cls-3" d="M89.16,491.2l-1.53.71,0-1.22,3-.12Z" transform="translate(-1.28 -16.45)"/><path class="cls-2" d="M94.26,469.42,95,487.86h0" transform="translate(-1.28 -16.45)"/><path class="cls-3" d="M95,488.43l-1.53.71,0-1.22,3-.12Z" transform="translate(-1.28 -16.45)"/><path class="cls-2" d="M100.39,466.78l.71,18.44h0" transform="translate(-1.28 -16.45)"/><path class="cls-3" d="M101.15,485.79l-1.53.71,0-1.22,3-.12Z" transform="translate(-1.28 -16.45)"/><path class="cls-2" d="M106.46,464.3l.71,18.44h0" transform="translate(-1.28 -16.45)"/><path class="cls-3" d="M107.22,483.31l-1.53.71,0-1.22,3-.12Z" transform="translate(-1.28 -16.45)"/><path class="cls-2" d="M112.48,461.55l.71,18.44h0" transform="translate(-1.28 -16.45)"/><path class="cls-3" d="M113.24,480.56l-1.53.71,0-1.22,3-.12Z" transform="translate(-1.28 -16.45)"/><path class="cls-2" d="M118.61,458.82l.71,18.44h0" transform="translate(-1.28 -16.45)"/><path class="cls-3" d="M119.37,477.83l-1.53.71,0-1.22,3-.12Z" transform="translate(-1.28 -16.45)"/><path class="cls-2" d="M124.7,456.13l.71,18.44h0" transform="translate(-1.28 -16.45)"/><path class="cls-3" d="M125.46,475.14l-1.53.71,0-1.22,3-.12Z" transform="translate(-1.28 -16.45)"/><path class="cls-2" d="M130.54,453.68l.71,18.44h0" transform="translate(-1.28 -16.45)"/><path class="cls-3" d="M131.3,472.69l-1.53.71,0-1.22,3-.12Z" transform="translate(-1.28 -16.45)"/><path class="cls-2" d="M136.67,451l.71,18.44h0" transform="translate(-1.28 -16.45)"/><path class="cls-3" d="M137.43,470l-1.53.71,0-1.22,3-.12Z" transform="translate(-1.28 -16.45)"/><path class="cls-2" d="M142.74,448.41l.71,18.44h0" transform="translate(-1.28 -16.45)"/><path class="cls-3" d="M143.5,467.42l-1.53.71,0-1.22,3-.12Z" transform="translate(-1.28 -16.45)"/><path class="cls-2" d="M170.79,182.07l.47,18.45h0" transform="translate(-1.28 -16.45)"/><path class="cls-3" d="M171.3,201.08l-1.54.69,0-1.22,3-.08Z" transform="translate(-1.28 -16.45)"/><path class="cls-2" d="M177,179.41l.47,18.45h0" transform="translate(-1.28 -16.45)"/><path class="cls-3" d="M177.46,198.43l-1.54.69,0-1.22,3-.08Z" transform="translate(-1.28 -16.45)"/><path class="cls-2" d="M183.06,176.73l.47,18.45h0" transform="translate(-1.28 -16.45)"/><path class="cls-3" d="M183.57,195.75l-1.54.69,0-1.22,3-.08Z" transform="translate(-1.28 -16.45)"/><path class="cls-2" d="M52.23,488.29l.47,18.45h0" transform="translate(-1.28 -16.45)"/><path class="cls-3" d="M52.74,507.3,51.2,508l0-1.22,3-.08Z" transform="translate(-1.28 -16.45)"/><path class="cls-2" d="M250,142.47l.47,18.45h0" transform="translate(-1.28 -16.45)"/><path class="cls-3" d="M250.52,161.49l-1.54.69,0-1.22,3-.08Z" transform="translate(-1.28 -16.45)"/><path class="cls-2" d="M152.12,190l.47,18.45h0" transform="translate(-1.28 -16.45)"/><path class="cls-3" d="M152.64,209l-1.54.69,0-1.22,3-.08Z" transform="translate(-1.28 -16.45)"/><path class="cls-2" d="M158.29,187.31l.47,18.45h0" transform="translate(-1.28 -16.45)"/><path class="cls-3" d="M158.8,206.32l-1.54.69,0-1.22,3-.08Z" transform="translate(-1.28 -16.45)"/><path class="cls-2" d="M164.4,184.63l.47,18.45h0" transform="translate(-1.28 -16.45)"/><path class="cls-3" d="M164.91,203.64l-1.54.69,0-1.22,3-.08Z" transform="translate(-1.28 -16.45)"/><path class="cls-2" d="M241.12,402.1l.71,18.44h0" transform="translate(-1.28 -16.45)"/><path class="cls-3" d="M241.88,421.11l-1.53.71,0-1.22,3-.12Z" transform="translate(-1.28 -16.45)"/><path class="cls-2" d="M247.42,398.38l.71,18.44h0" transform="translate(-1.28 -16.45)"/><path class="cls-3" d="M248.18,417.39l-1.53.71,0-1.22,3-.12Z" transform="translate(-1.28 -16.45)"/><path class="cls-2" d="M186.3,429l.71,18.44h0" transform="translate(-1.28 -16.45)"/><path class="cls-3" d="M187.06,448l-1.53.71,0-1.22,3-.12Z" transform="translate(-1.28 -16.45)"/><path class="cls-2" d="M192.44,426.35l.71,18.44h0" transform="translate(-1.28 -16.45)"/><path class="cls-3" d="M193.2,445.36l-1.53.71,0-1.22,3-.12Z" transform="translate(-1.28 -16.45)"/><path class="cls-2" d="M198.5,423.87l.71,18.44h0" transform="translate(-1.28 -16.45)"/><path class="cls-3" d="M199.26,442.88l-1.53.71,0-1.22,3-.12Z" transform="translate(-1.28 -16.45)"/><path class="cls-2" d="M204.52,421.12l.71,18.44h0" transform="translate(-1.28 -16.45)"/><path class="cls-3" d="M205.28,440.13l-1.53.71,0-1.22,3-.12Z" transform="translate(-1.28 -16.45)"/><path class="cls-2" d="M210.65,418.39l.71,18.44h0" transform="translate(-1.28 -16.45)"/><path class="cls-3" d="M211.41,437.4l-1.53.71,0-1.22,3-.12Z" transform="translate(-1.28 -16.45)"/><path class="cls-2" d="M216.74,415.16l.71,18.44h0" transform="translate(-1.28 -16.45)"/><path class="cls-3" d="M217.5,434.16l-1.53.71,0-1.22,3-.12Z" transform="translate(-1.28 -16.45)"/><path class="cls-2" d="M222.59,412.43l.71,18.44h0" transform="translate(-1.28 -16.45)"/><path class="cls-3" d="M223.35,431.44l-1.53.71,0-1.22,3-.12Z" transform="translate(-1.28 -16.45)"/><path class="cls-2" d="M228.81,408.88l.71,18.44h0" transform="translate(-1.28 -16.45)"/><path class="cls-3" d="M229.57,427.88l-1.53.71,0-1.22,3-.12Z" transform="translate(-1.28 -16.45)"/><path class="cls-2" d="M234.69,405.88l.71,18.44h0" transform="translate(-1.28 -16.45)"/><path class="cls-3" d="M235.45,424.89l-1.53.71,0-1.22,3-.12Z" transform="translate(-1.28 -16.45)"/><path class="cls-2" d="M190.05,173.31l.47,18.45h0" transform="translate(-1.28 -16.45)"/><path class="cls-3" d="M190.56,192.33,189,193l0-1.22,3-.08Z" transform="translate(-1.28 -16.45)"/><path class="cls-2" d="M196.22,170.66l.47,18.45h0" transform="translate(-1.28 -16.45)"/><path class="cls-3" d="M196.73,189.67l-1.54.69,0-1.22,3-.08Z" transform="translate(-1.28 -16.45)"/><path class="cls-2" d="M202.32,168l.47,18.45h0" transform="translate(-1.28 -16.45)"/><path class="cls-3" d="M202.84,187l-1.54.69,0-1.22,3-.08Z" transform="translate(-1.28 -16.45)"/><path class="cls-2" d="M208.22,165l.47,18.45h0" transform="translate(-1.28 -16.45)"/><path class="cls-3" d="M208.73,184l-1.54.69,0-1.22,3-.08Z" transform="translate(-1.28 -16.45)"/><path class="cls-2" d="M214.11,162.22l.47,18.45h0" transform="translate(-1.28 -16.45)"/><path class="cls-3" d="M214.63,181.24l-1.54.69,0-1.22,3-.08Z" transform="translate(-1.28 -16.45)"/><path class="cls-2" d="M220.22,159.14l.47,18.45h0" transform="translate(-1.28 -16.45)"/><path class="cls-3" d="M220.73,178.15l-1.54.69,0-1.22,3-.08Z" transform="translate(-1.28 -16.45)"/><path class="cls-2" d="M226.41,156.29l.47,18.45h0" transform="translate(-1.28 -16.45)"/><path class="cls-3" d="M226.92,175.31l-1.54.69,0-1.22,3-.08Z" transform="translate(-1.28 -16.45)"/><path class="cls-2" d="M232.44,153.1l.47,18.45h0" transform="translate(-1.28 -16.45)"/><path class="cls-3" d="M233,172.12l-1.54.69,0-1.22,3-.08Z" transform="translate(-1.28 -16.45)"/><path class="cls-2" d="M238.19,150l.47,18.45h0" transform="translate(-1.28 -16.45)"/><path class="cls-3" d="M238.7,169l-1.54.69,0-1.22,3-.08Z" transform="translate(-1.28 -16.45)"/><path class="cls-2" d="M244.15,146.69l.47,18.45h0" transform="translate(-1.28 -16.45)"/><path class="cls-3" d="M244.66,165.71l-1.54.69,0-1.22,3-.08Z" transform="translate(-1.28 -16.45)"/><text class="cls-4" transform="translate(387.07 369.74)">SYZE</text><text class="cls-5" transform="translate(686.15 193.99)">Beta</text></svg>